<?xml version="1.0" encoding="UTF-8"?>
<svg xmlns="http://www.w3.org/2000/svg" viewBox="0 0 436 153">
    <path
        d="M172.25,122c-2.44-.91-4.15-6.51-6.49-6.54-1.51-.02-7.15,3.89-9.28,4.78-16.67,6.99-36.76,1.93-45.68-14.29-3.9-7.09-5.42-17.14-5.82-25.18-.96-19.05.79-38.9-.02-58.04l.12-.65c.36-.07.99-.58,1.17-.58h27.5l.75.75v66.5c0,.28,1.56,4.72,1.8,5.2,2.84,5.78,11.45,5.16,16.16,2.26,1.63-1.01,7.04-6.28,7.04-7.96V22.25l.75-.75h27.5l.75.75v99l-.75.75h-15.5Z" />
    <path
        d="M21,22c.92-.23,1.76-.45,2.73-.52,11.47-.9,35.31-.97,46,2.05,38.24,10.8,38.88,60.48,2.18,74.12-2.24.83-9.6,2.85-11.65,2.85h-9l-.75.75v20l-.75.75h-27.5c-.17,0-.76-.66-1.25-.5V22ZM50.5,48.5v23.75c1.82,1.27,7.24.58,9.52.02,10.09-2.49,14.14-17.07,4.32-21.86-.7-.34-5.16-1.91-5.59-1.91h-8.25Z" />
    <path
        d="M297.5,133.5h-27.75c-.11,0-1.25-1.56-1.25-1.75V22c.49.16,1.08-.5,1.25-.5h64l-.24,26.76-35.51.99v15l.75.75h25.5l.75.75v25.5l-.75.75h-25.5l-.75.75v39.5c0,.17-.66.76-.5,1.25Z" />
    <path
        d="M227,133.5h-27.75c-.11,0-1.25-1.56-1.25-1.75V22c.49.16,1.08-.5,1.25-.5h63.5l.75.75v25.5l-4.23,1.27c-10.24.31-20.53-.34-30.75-.31-.58,0-.65.03-1.02.54v15l.75.75h25.5l.75.75v25.5l-.75.75h-25.5l-.75.75v39.5c0,.17-.66.76-.5,1.25Z" />
    <path
        d="M391.5,121.5c-.49-.16-1.08.5-1.25.5h-27l-.75-.75v-34c-8.22-20.91-18.96-41.77-26.74-62.76-.35-.96-1.04-2.41,0-2.99h26c.23,0,1.41,1.44,1.64,1.86,5.7,10.71,8.97,25.39,14.51,36.49l2.1,2.15,16-47.12c.16-.34,1.03-.88,1.25-.88h23.5c1.03.59.35,2.04,0,2.99-9.08,24.46-20.22,48.25-29.24,72.76v31.75Z" />
</svg>